{
  "accessors": [
    {
      "bufferView": 1,
      "componentType": 5126,
      "count": 896,
      "max": [
        1.3268400430679321,
        1.3268400430679321,
        4.996349811553955
      ],
      "min": [
        -1.3268300294876099,
        -1.3268400430679321,
        -2.8107500076293945
      ],
      "type": "VEC3"
    },
    {
      "bufferView": 1,
      "byteOffset": 10752,
      "componentType": 5126,
      "count": 896,
      "max": [
        0.9786472916603088,
        0.9786472916603088,
        0.9800482988357544
      ],
      "min": [
        -0.9786491394042969,
        -0.9786491394042969,
        -1.0
      ],
      "type": "VEC3"
    },
    {
      "bufferView": 0,
      "componentType": 5125,
      "count": 1338,
      "type": "SCALAR"
    },
    {
      "bufferView": 1,
      "byteOffset": 21504,
      "componentType": 5126,
      "count": 128,
      "max": [
        0.6507499814033508,
        0.6507499814033508,
        2.9611399173736572
      ],
      "min": [
        -0.6507499814033508,
        -0.6507499814033508,
        2.105370044708252
      ],
      "type": "VEC3"
    },
    {
      "bufferView": 1,
      "byteOffset": 23040,
      "componentType": 5126,
      "count": 128,
      "max": [
        0.974714994430542,
        0.974714994430542,
        0.20796073973178864
      ],
      "min": [
        -0.9747153520584106,
        -0.9747153520584106,
        -0.11109056323766708
      ],
      "type": "VEC3"
    },
    {
      "bufferView": 0,
      "byteOffset": 5352,
      "componentType": 5125,
      "count": 192,
      "type": "SCALAR"
    }
  ],
  "asset": {
    "extras": {
      "author": "Jiří Kuba (https://sketchfab.com/kuba.jirka)",
      "license": "CC-BY-4.0 (http://creativecommons.org/licenses/by/4.0/)",
      "source": "https://sketchfab.com/3d-models/bowling-pin-ac2cf6d2fbd44eb89fcf90e93b41e11f",
      "title": "Bowling Pin"
    },
    "generator": "Sketchfab-12.68.0",
    "version": "2.0"
  },
  "bufferViews": [
    {
      "buffer": 0,
      "byteLength": 6120,
      "name": "floatBufferViews",
      "target": 34963
    },
    {
      "buffer": 0,
      "byteLength": 24576,
      "byteOffset": 6120,
      "byteStride": 12,
      "name": "floatBufferViews",
      "target": 34962
    }
  ],
  "buffers": [
    {
      "byteLength": 30696,
      "uri": "scene.bin"
    }
  ],
  "materials": [
    {
      "doubleSided": true,
      "name": "BowlingPinMaterial",
      "pbrMetallicRoughness": {
        "metallicFactor": 0.0,
        "roughnessFactor": 0.6
      }
    },
    {
      "doubleSided": true,
      "name": "BowlingPinStripeMaterial",
      "pbrMetallicRoughness": {
        "baseColorFactor": [
          1.0,
          0.0,
          0.0030086874030530453,
          1.0
        ],
        "metallicFactor": 0.0,
        "roughnessFactor": 0.6
      }
    }
  ],
  "meshes": [
    {
      "name": "BowlingPin_0",
      "primitives": [
        {
          "attributes": {
            "NORMAL": 1,
            "POSITION": 0
          },
          "indices": 2,
          "material": 0,
          "mode": 4
        }
      ]
    },
    {
      "name": "BowlingPin_1",
      "primitives": [
        {
          "attributes": {
            "NORMAL": 4,
            "POSITION": 3
          },
          "indices": 5,
          "material": 1,
          "mode": 4
        }
      ]
    }
  ],
  "nodes": [
    {
      "children": [
        1
      ],
      "matrix": [
        230.88662719726563,
        0.0,
        0.0,
        0.0,
        0.0,
        5.1267129918489834e-14,
        -230.88662719726563,
        0.0,
        0.0,
        230.88662719726563,
        5.1267129918489834e-14,
        0.0,
        0.0,
        0.0,
        0.0,
        1.0
      ],
      "name": "Sketchfab_model"
    },
    {
      "children": [
        2
      ],
      "name": "Root"
    },
    {
      "children": [
        3,
        4
      ],
      "name": "BowlingPin"
    },
    {
      "mesh": 0,
      "name": "BowlingPin_0"
    },
    {
      "mesh": 1,
      "name": "BowlingPin_1"
    }
  ],
  "scene": 0,
  "scenes": [
    {
      "name": "Sketchfab_Scene",
      "nodes": [
        0
      ]
    }
  ]
}
